# xmcd CD database file
# Copyright (C) 1995-1998 Ti Kan
#
# Track frame offsets:
#	150
#	12270
#	22030
#	36328
#	45795
#	62065
#	74245
#	88558
#	99770
#	112000
#	125875
#	138648
#	151415
#	164043
#	175708
#	187900
#	198415
#	210545
#	222200
#	238633
#
# Disc length: 3353 seconds
#
# Revision: 1
# Processed by: cddbd v1.4PL0 Copyright (c) Steve Scherf et al.
# Submitted via: CDex 1.30Release
#
DISCID=200d1714
DTITLE=Merle Haggard - Country Gold
DYEAR=1995
DGENRE=Country
TTITLE0=Okie from Muskogee
TTITLE1=Mama tried
TTITLE2=Branded man
TTITLE3=The legend of Bonnie and Clyde
TTITLE4=Hungry eyes
TTITLE5=Workin' man blues
TTITLE6=I'm a lonesome fugitive
TTITLE7=(My friends are gonna be) strangers
TTITLE8=The bottle let me down
TTITLE9=Wine and roses
TTITLE10=Swingin' doors
TTITLE11=Sing me back home
TTITLE12=Emptiest arms in the world
TTITLE13=Turnin' off a memory
TTITLE14=Everybody's had the blues
TTITLE15=Someday we'll look back
TTITLE16=I take a lot of pride in what I am
TTITLE17=Carolyn
TTITLE18=Daddy Frank
TTITLE19=The fightin' side of me
EXTD=YEAR: 1995 ID3G:   2
EXTT0=
EXTT1=
EXTT2=
EXTT3=
EXTT4=
EXTT5=
EXTT6=
EXTT7=
EXTT8=
EXTT9=
EXTT10=
EXTT11=
EXTT12=
EXTT13=
EXTT14=
EXTT15=
EXTT16=
EXTT17=
EXTT18=
EXTT19=
PLAYORDER=
